<?xml version="1.0" encoding="utf-8"?>
<svg xmlns="http://www.w3.org/2000/svg" viewBox="669.5176 702.2148 1589.6506 255.0046" width="1589.65px" height="255.005px" preserveAspectRatio="none"><g id="object-8" transform="matrix(0.9999999999999999, 0, 0, 0.9999999999999999, 0, 0)"><path fill="#557B8F" opacity="1.000000" stroke="none" d=" M2089.545410,935.119812 C2094.253906,935.850708 2098.154785,936.403748 2102.655273,937.041748 C2102.655273,940.240906 2102.655273,943.010986 2102.655273,946.477783 C2070.264648,946.477783 2038.470337,946.477783 2006.456055,946.477783 C2006.072876,944.618286 2005.586182,943.354553 2005.610962,942.100830 C2005.642334,940.499390 2006.086670,938.905945 2006.386230,937.110474 C2012.250244,936.087036 2017.794678,935.192505 2023.308838,934.139160 C2030.835815,932.701355 2034.960571,927.823730 2035.827637,920.468323 C2036.528076,914.527222 2036.757690,908.501648 2036.767700,902.512817 C2036.845337,856.180603 2036.837036,809.848206 2036.797852,763.515869 C2036.793579,758.521118 2036.637939,753.506897 2036.179443,748.536072 C2035.186523,737.768921 2031.592407,733.801758 2021.109131,731.708008 C2015.941162,730.675903 2010.716187,729.929626 2005.001709,728.967224 C2005.001709,725.729065 2005.001709,722.907898 2005.001709,720.196899 C2012.739746,718.179016 2089.016357,717.793152 2100.810791,719.756409 C2101.085693,722.286804 2101.388184,725.067749 2101.670410,727.663879 C2100.204346,728.562317 2099.429443,729.359314 2098.534424,729.531799 C2093.958008,730.413391 2089.337402,731.066162 2084.756348,731.925781 C2076.820801,733.414795 2072.652588,738.379028 2071.797852,746.289490 C2071.583008,748.277710 2071.235840,750.268188 2071.224854,752.259155 C2071.114502,772.254150 2071.045166,792.249390 2071.028076,812.244629 C2071.027100,813.533325 2071.550293,814.822449 2072.081055,817.271179 C2092.050781,819.169434 2112.246826,817.941589 2132.379150,818.082031 C2152.253662,818.220703 2172.157715,818.600586 2191.804199,817.792603 C2192.528076,815.212341 2193.196777,813.945740 2193.191406,812.682068 C2193.101807,791.690735 2193.404785,770.681396 2192.595703,749.715637 C2192.103516,736.967957 2188.352051,733.744934 2175.771729,731.288391 C2171.859375,730.524414 2167.907227,729.963257 2162.867920,729.125488 C2162.670654,726.144287 2162.467773,723.080811 2162.214355,719.251953 C2194.728760,719.251953 2226.216797,719.251953 2257.652344,719.251953 C2258.285645,720.517944 2259.037842,721.366577 2259.087158,722.254272 C2259.195068,724.192017 2258.945312,726.149658 2258.842773,728.079773 C2257.725098,728.716980 2256.935303,729.468811 2256.040771,729.626648 C2251.449219,730.436523 2246.790039,730.897278 2242.229980,731.843933 C2232.158203,733.934875 2228.873291,737.552551 2227.653320,747.990784 C2227.113037,752.613770 2226.876953,757.297302 2226.871338,761.953796 C2226.812012,809.286011 2226.811768,856.618347 2226.852539,903.950623 C2226.856445,908.276062 2227.065674,912.621521 2227.515869,916.922485 C2228.749512,928.706360 2232.126709,932.369080 2243.998047,934.778748 C2248.535156,935.699768 2253.157227,936.205017 2258.597412,937.029663 C2258.796143,939.903870 2258.988281,942.682068 2259.168213,945.283936 C2250.396729,947.713196 2170.176514,947.879150 2160.507812,945.597717 C2160.507812,943.173889 2160.507812,940.624939 2160.507812,938.004211 C2161.483643,937.466248 2162.284668,936.729919 2163.184082,936.578430 C2167.777832,935.804565 2172.442871,935.403442 2176.998047,934.461792 C2188.142578,932.157959 2191.343262,928.501099 2192.708984,917.017273 C2192.944824,915.034485 2193.130859,913.032288 2193.139648,911.038147 C2193.239746,888.373657 2193.396484,865.708679 2193.320312,843.044556 C2193.293945,835.142639 2192.440430,834.228027 2184.765625,834.204773 C2149.100586,834.096802 2113.434570,834.169495 2077.769043,834.223389 C2076.161133,834.225830 2074.553467,834.672974 2071.985596,835.056274 C2071.601318,838.402466 2070.937256,841.570801 2070.921631,844.742249 C2070.820068,865.407959 2070.844971,886.074463 2070.870850,906.740662 C2070.874268,909.403015 2071.041992,912.072021 2071.269287,914.726257 C2072.474365,928.800232 2074.967529,931.664185 2089.545410,935.119812 z" id="object-1"/><path fill="#557A8F" opacity="1.000000" stroke="none" d=" M1418.069946,933.841492 C1427.639526,933.334839 1436.290405,933.000427 1444.908813,932.278381 C1456.343628,931.320374 1465.043945,925.655762 1470.855225,915.837524 C1474.410522,909.830688 1477.546143,903.572693 1480.786865,897.383850 C1482.159058,894.763733 1483.316895,892.031494 1484.856812,888.742432 C1488.271729,889.195801 1491.442383,889.616760 1496.015137,890.223816 C1491.832886,909.404297 1487.826050,927.779846 1483.734985,946.541748 C1424.783081,946.541748 1366.946655,946.541748 1308.208496,946.541748 C1308.208496,943.242798 1308.208496,940.218811 1308.208496,937.052856 C1314.514771,936.051270 1320.457153,935.399170 1326.262085,934.121582 C1336.676392,931.829346 1340.842773,926.943909 1341.944214,916.270630 C1342.250854,913.297119 1342.236206,910.282410 1342.237061,907.286560 C1342.250732,857.648315 1342.263062,808.010010 1342.207031,758.371826 C1342.202148,754.056885 1342.046387,749.690735 1341.380371,745.439209 C1340.166382,737.689026 1335.648560,732.939392 1327.676147,731.705688 C1322.793579,730.950073 1317.942383,729.990051 1312.573486,729.032043 C1312.573486,725.802307 1312.573486,722.974182 1312.573486,720.229370 C1320.549438,718.101013 1463.494629,717.792908 1474.381470,720.045349 C1475.472778,736.462158 1476.586426,753.212891 1477.739502,770.558350 C1473.837646,771.204712 1471.008057,771.673462 1467.386841,772.273376 C1465.684937,767.593323 1464.231323,763.273376 1462.544067,759.046875 C1460.817627,754.722717 1458.901367,750.472534 1456.997925,746.221558 C1453.885498,739.270996 1448.418579,735.072937 1440.991699,734.135559 C1432.428955,733.054749 1423.788086,732.371643 1415.161987,732.073730 C1405.513306,731.740540 1395.836548,731.824341 1386.184082,732.119263 C1378.546875,732.352661 1376.374146,734.280945 1376.319092,741.598022 C1376.130859,766.580750 1376.269775,791.566101 1376.342285,816.550232 C1376.345947,817.805481 1376.898193,819.059143 1377.258301,820.581604 C1378.660522,820.974976 1379.892090,821.615662 1381.126587,821.621460 C1394.448730,821.684570 1407.791748,822.112183 1421.088623,821.523376 C1438.590576,820.748352 1441.926880,817.627014 1446.586670,800.703552 C1447.018555,799.135010 1447.729126,797.643127 1448.442871,795.766968 C1451.538330,795.766968 1454.414307,795.766968 1458.286743,795.766968 C1459.392090,818.329651 1458.665283,840.486572 1458.746704,862.029968 C1457.297852,863.021240 1456.773438,863.679749 1456.215454,863.709351 C1453.932373,863.830566 1451.639038,863.759949 1449.350464,863.759949 C1448.630127,862.762695 1447.830200,862.059753 1447.542114,861.187683 C1446.186157,857.084412 1445.114380,852.883606 1443.669678,848.814087 C1441.757568,843.428894 1437.953735,840.009155 1432.363892,838.486389 C1424.351318,836.303711 1386.493896,836.139526 1376.832886,838.623962 C1376.627197,841.527100 1376.211304,844.753113 1376.200928,847.980408 C1376.142090,866.302979 1376.055054,884.627380 1376.263428,902.947876 C1376.323608,908.239075 1377.037476,913.570984 1377.967773,918.792297 C1379.276611,926.140320 1383.921875,930.839355 1391.284912,931.789368 C1399.847900,932.894165 1408.514893,933.192749 1418.069946,933.841492 z" id="object-2"/><path fill="#557B8F" opacity="1.000000" stroke="none" d=" M1654.899048,756.780151 C1672.557007,803.661438 1689.912720,849.823669 1707.279541,895.981689 C1708.687622,899.724121 1710.272461,903.402344 1711.604858,907.170654 C1717.462524,923.737732 1726.583252,936.460205 1747.104492,936.162537 C1747.473145,939.609680 1747.769287,942.377686 1747.976196,944.312805 C1745.333740,947.778259 1673.650879,948.519104 1658.210449,946.003174 C1658.030640,943.412415 1657.836914,940.621399 1657.650757,937.939636 C1659.158447,937.164734 1659.965454,936.551575 1660.869995,936.320740 C1664.097290,935.497253 1667.418213,934.999878 1670.594238,934.023376 C1679.305908,931.344421 1681.445801,927.855713 1678.695801,919.117676 C1675.598145,909.275024 1671.796021,899.653076 1668.260132,889.949829 C1666.320557,884.627502 1664.335571,879.321106 1662.303955,874.033264 C1658.998047,865.428345 1658.975586,865.277405 1650.265137,865.228455 C1630.599243,865.117920 1610.932373,865.121155 1591.266357,865.201660 C1582.413696,865.237915 1582.220703,865.302307 1579.134399,873.869690 C1574.392212,887.034241 1569.926758,900.299011 1565.397949,913.539673 C1564.754272,915.421631 1564.241333,917.382874 1563.963379,919.349243 C1562.804077,927.549622 1564.943848,931.258972 1572.792480,933.650574 C1577.545410,935.098877 1582.515503,935.835022 1588.614624,937.157043 C1588.770264,939.807983 1588.945923,942.797241 1589.164551,946.520142 C1562.458008,946.520142 1536.959229,946.520142 1510.791748,946.520142 C1510.791748,943.151855 1510.791748,940.356873 1510.791748,937.174866 C1513.616333,936.416565 1516.101685,935.521423 1518.664795,935.100098 C1530.962769,933.078186 1539.194580,925.924622 1543.985596,914.761841 C1552.658813,894.553955 1561.209351,874.291565 1569.601562,853.965332 C1587.278564,811.150269 1604.964600,768.337524 1622.281372,725.376587 C1625.327026,717.820740 1629.628418,713.890320 1639.279907,714.788269 C1644.235352,728.138184 1649.417480,742.099060 1654.899048,756.780151 M1617.022461,849.340576 C1628.758667,848.937500 1640.585327,850.204346 1652.415771,848.580627 C1649.729492,834.745850 1625.915771,770.718262 1621.655273,765.328430 C1615.769165,774.543335 1590.821167,840.625732 1590.270996,849.339111 C1598.562134,849.339111 1606.801147,849.339111 1617.022461,849.340576 z" id="object-3"/><path fill="#557A8F" opacity="1.000000" stroke="none" d=" M1830.021851,752.018799 C1812.243286,769.763489 1803.473755,791.056396 1801.115845,814.914734 C1797.859131,847.865417 1803.539551,879.045227 1825.134277,905.156860 C1849.567505,934.700928 1881.743164,943.656189 1918.609619,935.599731 C1936.045532,931.789368 1948.549683,920.047852 1958.723267,905.939636 C1963.772339,898.937744 1968.114746,891.426208 1973.430664,883.124146 C1976.397217,884.142761 1979.610718,885.246277 1983.972046,886.743835 C1980.310425,897.615662 1977.418945,907.821472 1973.477295,917.604126 C1961.092651,948.341553 1968.472778,941.228882 1937.045044,947.837463 C1909.058350,953.722412 1880.837036,954.848694 1852.810791,947.913147 C1808.343262,936.909058 1777.061890,910.944885 1764.275146,866.055237 C1751.134888,819.924255 1766.222412,761.575623 1823.030518,731.758789 C1849.352417,717.943237 1877.640259,713.075378 1907.072876,713.558167 C1926.184692,713.871643 1944.746460,717.728271 1963.250122,722.097107 C1967.656250,723.137390 1970.206299,724.989502 1970.840698,729.828430 C1972.913940,745.639587 1975.337891,761.404724 1977.759399,778.099731 C1974.096802,779.095825 1971.058472,779.922119 1967.131592,780.990112 C1965.794067,777.450195 1964.605835,774.467590 1963.534424,771.443604 C1954.084717,744.772644 1935.107666,730.421204 1907.083862,727.819885 C1889.957764,726.230164 1873.118652,727.235596 1857.033081,734.011841 C1847.120361,738.187744 1838.099609,743.770569 1830.021851,752.018799 z" id="object-4"/><path fill="#F6BA2A" opacity="1.000000" stroke="none" d=" M677.328491,769.231689 C681.833618,741.817688 698.269226,725.907104 722.969727,717.878174 C744.639893,710.834412 766.392883,713.143127 787.973816,718.928040 C790.223267,719.531006 792.463745,720.181580 794.670288,720.923401 C795.591919,721.233276 796.413879,721.839783 798.120483,722.767883 C800.114685,738.372070 802.172241,754.472412 804.313232,771.225098 C800.768799,772.139038 797.726318,772.923523 794.271667,773.814270 C791.640991,767.066101 789.502808,760.802307 786.795776,754.794861 C780.647705,741.151428 771.535889,730.621887 756.199829,726.967041 C738.436462,722.733521 719.953613,729.864258 711.808533,744.174133 C702.664307,760.239258 705.277100,780.936218 719.287903,793.627869 C726.353088,800.027893 734.812439,805.053894 743.121521,809.873352 C753.192261,815.714600 763.988647,820.305298 774.054749,826.153625 C781.213135,830.312561 788.085754,835.183350 794.390564,840.552917 C821.586182,863.714294 819.270325,903.320374 799.274231,925.821167 C785.743835,941.046387 768.342957,948.777527 748.657104,951.405823 C727.087585,954.285645 706.131714,951.403381 686.185303,942.302368 C682.817993,940.765991 679.357178,939.460205 678.601929,935.170105 C675.613831,918.197388 672.607788,901.227844 669.517578,883.743042 C673.691772,882.484131 676.744202,881.563538 680.383728,880.465881 C681.811829,884.324280 683.021606,887.705872 684.311218,891.056824 C688.901489,902.984741 694.954224,914.047180 704.041016,923.188965 C717.839844,937.071411 734.519836,941.910950 753.493103,937.654846 C766.401978,934.759094 775.412048,926.803284 779.791077,914.075256 C786.133362,895.640747 781.751221,877.689819 766.231567,865.516357 C756.613159,857.971863 745.461792,852.383972 735.010132,845.899109 C722.870544,838.366699 710.149536,831.605286 698.767700,823.061401 C685.753052,813.291748 678.260254,799.548462 676.942627,783.004517 C676.602417,778.732849 677.093262,774.395020 677.328491,769.231689 z" id="object-5"/><path fill="#F6B92A" opacity="1.000000" stroke="none" d=" M1114.433105,938.649902 C1119.174316,937.056824 1123.664551,936.227051 1128.166504,935.466064 C1142.115601,933.107971 1146.328003,928.629700 1147.524414,914.480286 C1147.860352,910.506165 1147.845337,906.495239 1147.847168,902.501099 C1147.868164,855.546448 1147.885254,808.591858 1147.828613,761.637268 C1147.822632,756.656372 1147.529541,751.657776 1147.042847,746.699463 C1146.186768,737.976562 1141.504761,732.675659 1132.615112,731.437683 C1127.359863,730.705750 1122.109375,729.941162 1116.401245,729.126221 C1116.401245,726.176331 1116.401245,723.265503 1116.401245,718.850037 C1147.846313,718.495728 1179.300171,718.807007 1211.961182,718.669861 C1212.155029,722.354187 1212.331421,725.706543 1212.504761,728.999939 C1206.261353,729.976257 1201.021240,730.793335 1195.782104,731.615479 C1187.261475,732.952515 1183.205688,738.435486 1182.149658,746.534790 C1181.763306,749.497925 1181.625244,752.512573 1181.624390,755.503845 C1181.608398,806.781433 1181.431152,858.060364 1181.755249,909.335999 C1181.867798,927.149841 1186.420898,931.992371 1203.930664,933.454163 C1215.167358,934.392151 1226.562500,934.174438 1237.845581,933.627991 C1251.767700,932.953674 1262.665649,926.355713 1269.612427,914.141235 C1274.205322,906.065857 1278.174805,897.635925 1282.881348,888.473328 C1285.484985,889.006104 1288.576050,889.638550 1293.082275,890.560669 C1288.671997,909.491638 1284.411621,927.779480 1280.101440,946.281067 C1224.363525,946.281067 1169.857178,946.281067 1114.783569,946.281067 C1114.573486,943.872131 1114.380493,941.658386 1114.433105,938.649902 z" id="object-6"/><g id="object-0"><path fill="#F1B72D" opacity="1.000000" stroke="none" d=" M1051.861328,792.430359 C1052.745850,793.505676 1053.630371,794.580994 1055.239502,796.467590 C1055.964111,797.278809 1056.040405,797.362061 1056.387207,797.816528 C1057.163452,798.870667 1057.593140,799.470398 1058.025146,800.034546 C1058.027710,799.999084 1057.972412,800.042786 1058.353882,800.640198 C1061.172363,806.089783 1063.609253,810.942017 1066.046265,815.794189 C1066.416260,817.387573 1066.786255,818.981018 1067.334961,822.014587 C1067.725708,824.226562 1067.937500,824.998413 1068.149292,825.770264 C1068.165161,827.650208 1068.180908,829.530151 1068.108765,833.275024 C1067.436768,840.480713 1066.852661,845.821411 1066.268555,851.162170 C1058.038208,882.182129 1038.838257,903.402283 1008.277161,912.967712 C991.237610,918.300964 973.515381,918.338745 956.268433,911.989746 C932.040161,903.070801 911.760681,888.996948 899.380676,865.856445 C886.816345,842.371460 884.831665,818.154358 895.432251,792.845581 C904.016907,772.349854 918.014526,757.175842 937.550171,748.057312 C965.895020,734.826965 994.265015,735.272583 1021.903870,754.169006 C1024.480835,756.784424 1026.304688,758.350220 1028.128418,759.916077 C1028.128418,759.916077 1028.018555,759.986572 1028.341064,760.324585 C1029.107422,761.164185 1029.614136,761.591553 1030.183472,761.944641 C1030.183472,761.944641 1030.095703,761.862183 1029.669678,762.175415 C1027.395752,762.364075 1025.547852,762.239502 1023.699829,762.114990 C998.766113,750.054077 974.516235,752.180542 950.156860,764.499023 C929.279602,775.056458 915.515503,791.071716 909.478821,813.479675 C903.537598,835.533203 904.225769,857.334961 917.606445,876.634094 C927.302551,890.618896 940.967590,900.343384 958.176636,903.390320 C985.795715,908.280457 1009.557678,900.092102 1028.967773,880.148987 C1044.793579,863.888611 1054.904907,844.678955 1053.927002,821.299805 C1053.587402,813.181152 1051.220947,805.147278 1049.689209,795.817627 C1050.352539,793.850525 1051.106934,793.140442 1051.861328,792.430359 z"/><path fill="#EAB431" opacity="1.000000" stroke="none" d=" M1027.752075,759.000305 C1026.304688,758.350220 1024.480835,756.784424 1022.332275,754.702148 C1023.554199,754.366577 1025.100952,754.547424 1028.817017,754.981873 C1026.322266,750.933411 1024.582031,748.360718 1023.104614,745.645020 C1021.444336,742.593445 1021.840332,739.814758 1025.158691,738.138916 C1033.027588,734.164917 1040.956299,730.309570 1049.015991,726.329590 C1049.612305,733.234192 1044.104980,744.984619 1035.204834,756.202209 C1033.010254,755.283936 1030.715942,754.323975 1027.375732,752.926331 C1027.375732,755.221558 1027.375732,756.653076 1027.752075,759.000305 z"/><path fill="#EAB431" opacity="1.000000" stroke="none" d=" M959.747742,928.038574 C959.719299,925.277161 959.719299,923.338196 959.719299,920.895203 C962.193176,920.648926 964.223755,919.912231 965.921875,920.380615 C970.533020,921.652710 976.469482,922.182129 979.160583,925.330750 C982.574280,929.324829 977.009094,933.506592 975.270508,937.570679 C973.730896,941.169739 971.984497,944.693420 970.114197,948.133423 C968.778198,950.590698 967.086182,952.854492 964.238586,957.219421 C961.199280,946.377930 960.604980,937.597229 959.747742,928.038574 z"/><path fill="#EAB431" opacity="1.000000" stroke="none" d=" M1056.040405,797.362061 C1056.040405,797.362061 1055.964111,797.278809 1055.961670,797.222290 C1057.427002,797.883484 1058.895020,798.601196 1061.865967,800.053711 C1061.297607,795.884216 1060.901367,792.809631 1060.454956,789.742371 C1059.877686,785.777222 1061.419067,782.853027 1065.454956,782.705200 C1074.268555,782.382324 1083.102051,782.605408 1093.056885,782.605408 C1091.319092,784.745239 1090.245361,786.631592 1088.673584,787.901367 C1082.995605,792.488098 1077.138184,796.851990 1071.372803,801.331238 C1068.355957,803.675110 1065.979736,803.317139 1063.448242,798.505005 C1058.812134,794.396545 1057.928223,796.455139 1057.972412,800.042786 C1057.972412,800.042786 1058.027710,799.999084 1057.887207,799.487671 C1057.177856,798.438232 1056.609131,797.900146 1056.040405,797.362061 z"/><path fill="#EAB431" opacity="1.000000" stroke="none" d=" M879.291016,837.576477 C888.340942,850.401855 887.164978,853.326965 872.998352,855.944397 C866.998840,857.052795 861.119812,858.813293 854.741272,860.387146 C856.643127,852.956848 864.060547,843.598511 875.401672,833.805054 C876.532959,834.887268 877.693298,835.997192 879.291016,837.576477 z"/><path fill="#EAB431" opacity="1.000000" stroke="none" d=" M1043.286377,903.753784 C1046.259521,903.636963 1048.520508,903.636963 1051.712158,903.636963 C1052.450806,914.460815 1053.148560,924.684937 1053.846191,934.909058 C1053.053955,935.246460 1052.261597,935.583801 1051.469238,935.921143 C1044.693237,927.681824 1037.917236,919.442444 1030.205444,910.065247 C1035.121948,907.602844 1038.847900,905.736755 1043.286377,903.753784 z"/><path fill="#EAB431" opacity="1.000000" stroke="none" d=" M874.133423,779.775879 C869.355408,775.421387 865.044617,771.602295 859.022217,766.266785 C872.226929,764.884644 882.672180,767.284973 893.150757,768.986877 C892.709351,779.911804 891.522644,782.208740 883.237305,787.772461 C880.479736,785.390137 877.540222,782.850708 874.133423,779.775879 z"/><path fill="#EAB431" opacity="1.000000" stroke="none" d=" M985.404541,705.026489 C987.391174,714.768982 989.146851,723.787354 991.239380,734.536255 C984.918884,734.138367 979.788452,734.257446 974.844543,733.355164 C971.309937,732.710083 969.026184,730.151917 970.825439,725.996826 C973.947815,718.785828 976.968750,711.527344 980.276794,704.402283 C981.523010,701.718018 983.473572,701.045349 985.404541,705.026489 z"/><path fill="#EAB431" opacity="1.000000" stroke="none" d=" M933.533386,743.766846 C927.863098,746.726990 922.851196,749.355713 915.825500,746.609253 C915.825500,736.654297 915.825500,726.395325 915.825500,714.814941 C918.038696,716.579651 919.706787,717.422546 920.679504,718.768066 C925.331909,725.203918 929.918396,731.697205 934.211853,738.373535 C934.972595,739.556519 934.233337,741.704224 933.533386,743.766846 z"/><path fill="#EAB431" opacity="1.000000" stroke="none" d=" M920.764038,909.493530 C912.341125,914.565857 904.436462,919.213745 896.531799,923.861694 C895.932800,923.415405 895.333801,922.969116 894.734863,922.522888 C897.645691,912.259277 902.504822,902.763367 907.338745,893.285156 C918.685425,897.058777 921.735718,900.593079 920.764038,909.493530 z"/><path fill="#EAB431" opacity="1.000000" stroke="none" d=" M1024.083496,762.653809 C1025.547852,762.239502 1027.395752,762.364075 1029.728882,762.192383 C1033.204834,765.253967 1036.195679,768.611633 1039.186523,771.969360 C1038.789551,772.387085 1038.392578,772.804810 1037.995728,773.222534 C1033.486206,769.879211 1028.976685,766.535889 1024.083496,762.653809 z"/><path fill="#557B8F" opacity="1.000000" stroke="none" d=" M1066.531372,850.793152 C1066.852661,845.821411 1067.436768,840.480713 1068.201172,834.682007 C1067.852417,839.624146 1067.323242,845.024109 1066.531372,850.793152 z"/><path opacity="1.000000" stroke="none" d=" M1051.895752,792.063965 C1051.106934,793.140442 1050.352539,793.850525 1049.391113,794.869263 C1048.242554,793.332275 1047.301147,791.486572 1046.359619,789.640869 C1046.691528,789.253662 1047.023438,788.866455 1047.355347,788.479248 C1048.880249,789.552063 1050.405273,790.624878 1051.895752,792.063965 z" style="fill: rgb(241, 184, 46);"/><path fill="#557B8F" opacity="1.000000" stroke="none" d=" M1068.310791,825.665527 C1067.937500,824.998413 1067.725708,824.226562 1067.678467,823.193604 C1068.052856,823.808594 1068.262451,824.684692 1068.310791,825.665527 z"/><path fill="#EAB431" opacity="1.000000" stroke="none" d=" M1030.020630,761.434448 C1029.614136,761.591553 1029.107422,761.164185 1028.364502,760.263794 C1028.663086,760.218079 1029.260376,760.571167 1030.020630,761.434448 z"/><path fill="#557B8F" opacity="1.000000" stroke="none" d=" M1056.387207,797.816528 C1056.609131,797.900146 1057.177856,798.438232 1057.884644,799.523193 C1057.593140,799.470398 1057.163452,798.870667 1056.387207,797.816528 z"/></g><path fill="#EAB431" opacity="1.000000" stroke="none" d=" M1077.879150,847.207031 C1086.422974,852.962585 1094.298584,858.596924 1102.733521,864.631348 C1095.087158,868.014465 1083.872070,868.131592 1069.265503,865.430359 C1069.491089,858.266724 1069.526978,851.162231 1077.879150,847.207031 z" id="object-7"/></g></svg>