<?xml version="1.0" encoding="utf-8"?>
<svg xmlns="http://www.w3.org/2000/svg" viewBox="854.7413 702.2148 247.9922 255.0046" width="247.992px" height="255.005px" preserveAspectRatio="none"><g id="object-0" transform="matrix(1, 0, 0, 1, 0, -2.842170943040401e-14)"><path fill="#F1B72D" opacity="1.000000" stroke="none" d=" M1051.861328,792.430359 C1052.745850,793.505676 1053.630371,794.580994 1055.239502,796.467590 C1055.964111,797.278809 1056.040405,797.362061 1056.387207,797.816528 C1057.163452,798.870667 1057.593140,799.470398 1058.025146,800.034546 C1058.027710,799.999084 1057.972412,800.042786 1058.353882,800.640198 C1061.172363,806.089783 1063.609253,810.942017 1066.046265,815.794189 C1066.416260,817.387573 1066.786255,818.981018 1067.334961,822.014587 C1067.725708,824.226562 1067.937500,824.998413 1068.149292,825.770264 C1068.165161,827.650208 1068.180908,829.530151 1068.108765,833.275024 C1067.436768,840.480713 1066.852661,845.821411 1066.268555,851.162170 C1058.038208,882.182129 1038.838257,903.402283 1008.277161,912.967712 C991.237610,918.300964 973.515381,918.338745 956.268433,911.989746 C932.040161,903.070801 911.760681,888.996948 899.380676,865.856445 C886.816345,842.371460 884.831665,818.154358 895.432251,792.845581 C904.016907,772.349854 918.014526,757.175842 937.550171,748.057312 C965.895020,734.826965 994.265015,735.272583 1021.903870,754.169006 C1024.480835,756.784424 1026.304688,758.350220 1028.128418,759.916077 C1028.128418,759.916077 1028.018555,759.986572 1028.341064,760.324585 C1029.107422,761.164185 1029.614136,761.591553 1030.183472,761.944641 C1030.183472,761.944641 1030.095703,761.862183 1029.669678,762.175415 C1027.395752,762.364075 1025.547852,762.239502 1023.699829,762.114990 C998.766113,750.054077 974.516235,752.180542 950.156860,764.499023 C929.279602,775.056458 915.515503,791.071716 909.478821,813.479675 C903.537598,835.533203 904.225769,857.334961 917.606445,876.634094 C927.302551,890.618896 940.967590,900.343384 958.176636,903.390320 C985.795715,908.280457 1009.557678,900.092102 1028.967773,880.148987 C1044.793579,863.888611 1054.904907,844.678955 1053.927002,821.299805 C1053.587402,813.181152 1051.220947,805.147278 1049.689209,795.817627 C1050.352539,793.850525 1051.106934,793.140442 1051.861328,792.430359 z"/><path fill="#EAB431" opacity="1.000000" stroke="none" d=" M1027.752075,759.000305 C1026.304688,758.350220 1024.480835,756.784424 1022.332275,754.702148 C1023.554199,754.366577 1025.100952,754.547424 1028.817017,754.981873 C1026.322266,750.933411 1024.582031,748.360718 1023.104614,745.645020 C1021.444336,742.593445 1021.840332,739.814758 1025.158691,738.138916 C1033.027588,734.164917 1040.956299,730.309570 1049.015991,726.329590 C1049.612305,733.234192 1044.104980,744.984619 1035.204834,756.202209 C1033.010254,755.283936 1030.715942,754.323975 1027.375732,752.926331 C1027.375732,755.221558 1027.375732,756.653076 1027.752075,759.000305 z"/><path fill="#EAB431" opacity="1.000000" stroke="none" d=" M959.747742,928.038574 C959.719299,925.277161 959.719299,923.338196 959.719299,920.895203 C962.193176,920.648926 964.223755,919.912231 965.921875,920.380615 C970.533020,921.652710 976.469482,922.182129 979.160583,925.330750 C982.574280,929.324829 977.009094,933.506592 975.270508,937.570679 C973.730896,941.169739 971.984497,944.693420 970.114197,948.133423 C968.778198,950.590698 967.086182,952.854492 964.238586,957.219421 C961.199280,946.377930 960.604980,937.597229 959.747742,928.038574 z"/><path fill="#EAB431" opacity="1.000000" stroke="none" d=" M1056.040405,797.362061 C1056.040405,797.362061 1055.964111,797.278809 1055.961670,797.222290 C1057.427002,797.883484 1058.895020,798.601196 1061.865967,800.053711 C1061.297607,795.884216 1060.901367,792.809631 1060.454956,789.742371 C1059.877686,785.777222 1061.419067,782.853027 1065.454956,782.705200 C1074.268555,782.382324 1083.102051,782.605408 1093.056885,782.605408 C1091.319092,784.745239 1090.245361,786.631592 1088.673584,787.901367 C1082.995605,792.488098 1077.138184,796.851990 1071.372803,801.331238 C1068.355957,803.675110 1065.979736,803.317139 1063.448242,798.505005 C1058.812134,794.396545 1057.928223,796.455139 1057.972412,800.042786 C1057.972412,800.042786 1058.027710,799.999084 1057.887207,799.487671 C1057.177856,798.438232 1056.609131,797.900146 1056.040405,797.362061 z"/><path fill="#EAB431" opacity="1.000000" stroke="none" d=" M879.291016,837.576477 C888.340942,850.401855 887.164978,853.326965 872.998352,855.944397 C866.998840,857.052795 861.119812,858.813293 854.741272,860.387146 C856.643127,852.956848 864.060547,843.598511 875.401672,833.805054 C876.532959,834.887268 877.693298,835.997192 879.291016,837.576477 z"/><path fill="#EAB431" opacity="1.000000" stroke="none" d=" M1043.286377,903.753784 C1046.259521,903.636963 1048.520508,903.636963 1051.712158,903.636963 C1052.450806,914.460815 1053.148560,924.684937 1053.846191,934.909058 C1053.053955,935.246460 1052.261597,935.583801 1051.469238,935.921143 C1044.693237,927.681824 1037.917236,919.442444 1030.205444,910.065247 C1035.121948,907.602844 1038.847900,905.736755 1043.286377,903.753784 z"/><path fill="#EAB431" opacity="1.000000" stroke="none" d=" M874.133423,779.775879 C869.355408,775.421387 865.044617,771.602295 859.022217,766.266785 C872.226929,764.884644 882.672180,767.284973 893.150757,768.986877 C892.709351,779.911804 891.522644,782.208740 883.237305,787.772461 C880.479736,785.390137 877.540222,782.850708 874.133423,779.775879 z"/><path fill="#EAB431" opacity="1.000000" stroke="none" d=" M985.404541,705.026489 C987.391174,714.768982 989.146851,723.787354 991.239380,734.536255 C984.918884,734.138367 979.788452,734.257446 974.844543,733.355164 C971.309937,732.710083 969.026184,730.151917 970.825439,725.996826 C973.947815,718.785828 976.968750,711.527344 980.276794,704.402283 C981.523010,701.718018 983.473572,701.045349 985.404541,705.026489 z"/><path fill="#EAB431" opacity="1.000000" stroke="none" d=" M933.533386,743.766846 C927.863098,746.726990 922.851196,749.355713 915.825500,746.609253 C915.825500,736.654297 915.825500,726.395325 915.825500,714.814941 C918.038696,716.579651 919.706787,717.422546 920.679504,718.768066 C925.331909,725.203918 929.918396,731.697205 934.211853,738.373535 C934.972595,739.556519 934.233337,741.704224 933.533386,743.766846 z"/><path fill="#EAB431" opacity="1.000000" stroke="none" d=" M920.764038,909.493530 C912.341125,914.565857 904.436462,919.213745 896.531799,923.861694 C895.932800,923.415405 895.333801,922.969116 894.734863,922.522888 C897.645691,912.259277 902.504822,902.763367 907.338745,893.285156 C918.685425,897.058777 921.735718,900.593079 920.764038,909.493530 z"/><path fill="#EAB431" opacity="1.000000" stroke="none" d=" M1024.083496,762.653809 C1025.547852,762.239502 1027.395752,762.364075 1029.728882,762.192383 C1033.204834,765.253967 1036.195679,768.611633 1039.186523,771.969360 C1038.789551,772.387085 1038.392578,772.804810 1037.995728,773.222534 C1033.486206,769.879211 1028.976685,766.535889 1024.083496,762.653809 z"/><path fill="#557B8F" opacity="1.000000" stroke="none" d=" M1066.531372,850.793152 C1066.852661,845.821411 1067.436768,840.480713 1068.201172,834.682007 C1067.852417,839.624146 1067.323242,845.024109 1066.531372,850.793152 z"/><path opacity="1.000000" stroke="none" d=" M1051.895752,792.063965 C1051.106934,793.140442 1050.352539,793.850525 1049.391113,794.869263 C1048.242554,793.332275 1047.301147,791.486572 1046.359619,789.640869 C1046.691528,789.253662 1047.023438,788.866455 1047.355347,788.479248 C1048.880249,789.552063 1050.405273,790.624878 1051.895752,792.063965 z" style="fill: rgb(241, 184, 46);"/><path fill="#557B8F" opacity="1.000000" stroke="none" d=" M1068.310791,825.665527 C1067.937500,824.998413 1067.725708,824.226562 1067.678467,823.193604 C1068.052856,823.808594 1068.262451,824.684692 1068.310791,825.665527 z"/><path fill="#EAB431" opacity="1.000000" stroke="none" d=" M1030.020630,761.434448 C1029.614136,761.591553 1029.107422,761.164185 1028.364502,760.263794 C1028.663086,760.218079 1029.260376,760.571167 1030.020630,761.434448 z"/><path fill="#557B8F" opacity="1.000000" stroke="none" d=" M1056.387207,797.816528 C1056.609131,797.900146 1057.177856,798.438232 1057.884644,799.523193 C1057.593140,799.470398 1057.163452,798.870667 1056.387207,797.816528 z"/><path fill="#EAB431" opacity="1.000000" stroke="none" d=" M1077.879150,847.207031 C1086.422974,852.962585 1094.298584,858.596924 1102.733521,864.631348 C1095.087158,868.014465 1083.872070,868.131592 1069.265503,865.430359 C1069.491089,858.266724 1069.526978,851.162231 1077.879150,847.207031 z" id="object-7"/></g></svg>